<svg id="Envelop_icon" data-name="Envelop icon" xmlns="http://www.w3.org/2000/svg" width="38.803" height="41.703" viewBox="0 0 38.803 41.703">
  <path id="Контур_10" data-name="Контур 10" d="M303.893,313.948q-.029,9.986,1.111,12.538a4.842,4.842,0,0,0,3.009,1.9,26.5,26.5,0,0,0,5.989.934c2.409.148,5.4.207,8.939.177q15.724-.192,18.094-2.518,1.136-1.136,1.475-4.435a67.468,67.468,0,0,0,.049-9.46q-.147-3.688-.492-7.543a43.26,43.26,0,0,0-.541-4.583q-.443-1.431-4.484-4.651a75.4,75.4,0,0,0-8.5-5.871q-4.47-2.64-5.94-2.635-1.623,0-5.743,2.567a59.966,59.966,0,0,0-7.788,5.773q-3.673,3.2-4.16,4.779-1.018,3.054-1.023,13.03m5.763-13.128c.61-.59,1.406-1.308,2.39-2.144s2.016-1.652,3.108-2.439c1.082-.816,2.183-1.593,3.3-2.311s2.036-1.278,2.763-1.672a4.473,4.473,0,0,1,1.377-.6,14.469,14.469,0,0,1,2.862,1.455q2.508,1.46,5.123,3.275a59.053,59.053,0,0,1,6.7,5.074q-4,3.009-7.189,5.4t-4.907,3.55a8.7,8.7,0,0,1-1.947,1.16,9.43,9.43,0,0,1-2.016-1.062q-1.77-1.062-5.1-3.275c-2.213-1.475-4.681-3.176-7.366-5.074a.475.475,0,0,0-.148-.1,4.867,4.867,0,0,1,1.052-1.239m9.037,11.7q3.5,2.139,4.632,2.144c.688-.03,2.173-.826,4.465-2.36s5.723-4.091,10.326-7.641q.442,4.484.59,8.575.192,4.44.049,7.592c-.1,2.1-.246,3.235-.443,3.4q-.4.4-5.222.885c-3.216.325-6.618.511-10.2.541a89.838,89.838,0,0,1-10.493-.344,23.606,23.606,0,0,1-3.4-.59,5.091,5.091,0,0,1-.639-.2q-.546-1.726-.59-8.26c-.03-4.356.079-7.956.344-10.817q7.08,4.927,10.581,7.071" transform="translate(-303.892 -287.8)" fill="#fff"/>
</svg>
