<svg xmlns="http://www.w3.org/2000/svg" width="23.207" height="42.495" viewBox="0 0 23.207 42.495">
  <path id="Контур_74" data-name="Контур 74" d="M-154.958,215.536c.475.158.8.633.984,1.424a6.914,6.914,0,0,1,0,2.671,6.232,6.232,0,0,1-.984,2.492,2.127,2.127,0,0,1-1.335.089,9.433,9.433,0,0,0-2.013-.089,16.437,16.437,0,0,0-2.077.237,2.507,2.507,0,0,0-1.607,1.009,3.325,3.325,0,0,0-.5,2.314v4.688c3.917-.272,6.355-.272,7.3,0q1.009.415.806,3.323t-.984,3.561q-1.009.771-7.121.475a168.88,168.88,0,0,0,0,18.871,4.008,4.008,0,0,1-2.433.949,10.566,10.566,0,0,1-3.531,0q-1.632-.3-1.632-.949V237.731a20.693,20.693,0,0,1-6.345,0,9.233,9.233,0,0,1-.6-3.739q-.119-3.026.6-3.62h6.345v-5.4a12.871,12.871,0,0,1,.45-3.561,9.368,9.368,0,0,1,1.454-2.938,6.172,6.172,0,0,1,2.725-2.107,16.979,16.979,0,0,1,4.332-1.039A22.987,22.987,0,0,1-154.958,215.536Z" transform="translate(177.051 -215.205)" fill="#e41b23"/>
</svg>
