<svg xmlns="http://www.w3.org/2000/svg" width="48.125" height="39.652" viewBox="0 0 48.125 39.652">
  <path id="Контур_79" data-name="Контур 79" d="M-146.19,324.816a1.634,1.634,0,0,1-.486,1.188,1.634,1.634,0,0,1-1.193.486h-15.554a1.627,1.627,0,0,1-1.157-.486,1.563,1.563,0,0,1-.518-1.188c0-.9-.031-2.016-.108-3.353a1.6,1.6,0,0,1,.756-1.508,2.316,2.316,0,0,0,1.161-1.512,1.574,1.574,0,0,0-.567-1.593,2.851,2.851,0,0,0-2.106-.621,4.094,4.094,0,0,0-1.616.3,2.938,2.938,0,0,0-1.085.729,2.261,2.261,0,0,0-.509.945,1.471,1.471,0,0,0,.076,1,1.818,1.818,0,0,0,.761.81,1.589,1.589,0,0,1,.806,1.454q0,1.3.058,3.187a1.577,1.577,0,0,1-.464,1.274,1.661,1.661,0,0,1-1.215.513q-8.263-.115-9.123-.27a1.664,1.664,0,0,1-.977-.4,2.207,2.207,0,0,1-.428-.945,2.075,2.075,0,0,1-.058-.545c-.031-.284-.072-.7-.108-1.238q-.054-1.458-.054-4.158-.054-4.429,0-12.368.054-3.24.108-7.291.054-2.214.054-3.672t.027-2.943q.027-1.485.054-2.592c.018-.738.027-1.184.027-1.323a1.542,1.542,0,0,1,.437-1.107,1.8,1.8,0,0,1,1.026-.567q2.106-.216,22.872-.162t21.355.27a1.944,1.944,0,0,1,.869.513,4.277,4.277,0,0,1,.32,1.269,7.517,7.517,0,0,1,.162,1.238q.115,1.519.275,4.163.27,5.347.378,12.368.27,12.314,0,15.824c-.185,2.336-.756,3.636-1.733,3.888q-.432.108-8.479.108a1.661,1.661,0,0,1-1.215-.513,1.507,1.507,0,0,1-.459-1.215c.036-1.3.058-2.376.058-3.241a1.381,1.381,0,0,1,.482-1.193q1.62-1.667,1.031-2.831t-3.137-1.215a3.037,3.037,0,0,0-2.079.648,1.519,1.519,0,0,0-.54,1.535,2.317,2.317,0,0,0,1.166,1.49,1.594,1.594,0,0,1,.752,1.508C-146.122,322.8-146.158,323.911-146.19,324.816Zm-3.294-2.6a5.323,5.323,0,0,1-1.949-3.857,4.845,4.845,0,0,1,1.571-3.861,6.054,6.054,0,0,1,4.532-1.566,7.9,7.9,0,0,1,3.812.864,5.454,5.454,0,0,1,2.291,2.16,4.581,4.581,0,0,1,.437,2.97,6.327,6.327,0,0,1-1.625,3.187v1.026c1.625-.036,2.952-.054,4-.054h1.026v-.108c.076-.936.126-2.273.167-4q.1-4.807-.059-12.26-.162-6.913-.432-12.264-.108-2.585-.216-3.992a.24.24,0,0,0-.049-.162q-5.678-.054-19.5-.054t-20.8.054c0,.576,0,1.26-.023,2.052s-.041,1.575-.059,2.349-.022,1.494-.022,2.16v2.4q-.061,4-.108,7.237-.061,7.939-.059,12.314c.036,1.764.077,3.114.108,4.051v.054c1.224.032,3.078.072,5.563.108a4.99,4.99,0,0,1-.054-.7,4.689,4.689,0,0,1-1.616-2.835,5.059,5.059,0,0,1,.427-3.105,6.054,6.054,0,0,1,2.349-2.484,7.318,7.318,0,0,1,3.754-1.08,6.275,6.275,0,0,1,4.564,1.647,4.87,4.87,0,0,1,1.593,3.889,5.178,5.178,0,0,1-1.944,3.807,8.339,8.339,0,0,1,.054.918q5.833.054,12.264.054Zm-14.1-28.025a1.035,1.035,0,0,1,.864.7,26.781,26.781,0,0,1,.459,6.238q.027,4.942-.567,6.022a.956.956,0,0,1-.756.54q-2.538.216-5.126.189a9.129,9.129,0,0,1-3.186-.351.945.945,0,0,1-.54-.648q-.7-2.646-.058-11.72a1.1,1.1,0,0,1,.329-.648,1.092,1.092,0,0,1,.648-.324A36.224,36.224,0,0,1-163.585,294.193Zm-6.859,2.052a53.043,53.043,0,0,0-.108,9.505,44.525,44.525,0,0,0,6.049-.108,40.638,40.638,0,0,0,.135-4.622,41.425,41.425,0,0,0-.243-4.829A35.453,35.453,0,0,0-170.444,296.246Zm12.476,1.35a1.084,1.084,0,0,1-.756-.3.962.962,0,0,1-.32-.729,1.049,1.049,0,0,1,.32-.756,1.036,1.036,0,0,1,.756-.324h16.85a.967.967,0,0,1,.734.324,1.1,1.1,0,0,1,.3.756,1.009,1.009,0,0,1-.3.729,1.009,1.009,0,0,1-.734.3Zm0,4.861a.823.823,0,0,1-.617-.243.812.812,0,0,1-.247-.594.83.83,0,0,1,.247-.6.838.838,0,0,1,.617-.239h17.66a.856.856,0,0,1,.621.239.83.83,0,0,1,.247.6.812.812,0,0,1-.247.594.841.841,0,0,1-.621.243Zm0,4.212a.824.824,0,0,1-.617-.243.813.813,0,0,1-.247-.594.813.813,0,0,1,.247-.594.824.824,0,0,1,.617-.243h13.452a.838.838,0,0,1,.617.243.813.813,0,0,1,.247.594.813.813,0,0,1-.247.594.838.838,0,0,1-.617.243Z" transform="translate(179.922 -286.838)" fill="#e41b23"/>
</svg>
