<svg xmlns="http://www.w3.org/2000/svg" width="36.666" height="37.409" viewBox="0 0 36.666 37.409">
  <g id="Сгруппировать_31" data-name="Сгруппировать 31" transform="translate(0)">
    <path id="Контур_117" data-name="Контур 117" d="M-19.58,145.377A4.353,4.353,0,0,1-22.8,143.99a4.236,4.236,0,0,1-1.356-3,4.2,4.2,0,0,1,.515-2,4.423,4.423,0,0,1,1.581-1.645,4.536,4.536,0,0,1,2.485-.68,3.956,3.956,0,0,1,3.166,1.358,4.462,4.462,0,0,1,1.16,2.968,4.4,4.4,0,0,1-1.29,2.971A3.981,3.981,0,0,1-19.58,145.377Zm3.941,27.562c0,.3-.251.55-.743.743a5.938,5.938,0,0,1-1.808.355,16.7,16.7,0,0,1-2.13,0,7.039,7.039,0,0,1-1.9-.355q-.838-.29-.97-.743-.385-1.162-.385-11.939t.385-12.267q.193-.9,1.971-1.063a11.086,11.086,0,0,1,3.484.225,4.422,4.422,0,0,1,2.1.838,12.648,12.648,0,0,1,.192,2.616q.061,2.42.033,5.874t-.065,6.745q-.032,3.292-.1,6T-15.64,172.939Zm28.142,0q0,.39-1.678.743a12.819,12.819,0,0,1-3.551.227q-1.871-.131-2.259-.97-.514-1.031-.452-8.357T4.5,156.867a4.34,4.34,0,0,0-2-1.9A3.267,3.267,0,0,0,.3,154.77a6.847,6.847,0,0,0-1.841.805,2.7,2.7,0,0,0-1.065,1.1q-.322.517-.548,8.166t-.291,8.1c-.088.43-.742.743-1.968.938a11.632,11.632,0,0,1-3.647,0q-1.81-.292-1.808-.938,0-.193-.1-3.131t-.16-6.227q-.068-3.294,0-7.585t.257-7.263a4.117,4.117,0,0,1,3.068-.9,9.314,9.314,0,0,1,4.1.9,10.3,10.3,0,0,1,0,3.294h.13a6.1,6.1,0,0,1,2.581-2.648,7.96,7.96,0,0,1,4.52-1.293q5.29,0,7.357,3.294,1.679,2.648,1.615,8.263Z" transform="translate(24.161 -136.662)" fill="#fff"/>
  </g>
</svg>
