<svg xmlns="http://www.w3.org/2000/svg" width="41.851" height="42.843" viewBox="0 0 41.851 42.843">
  <path id="Контур_75" data-name="Контур 75" d="M-177.135,234.741q1.206-4.6,17.305-5.046,4.344-.128,8.181.128a52.159,52.159,0,0,1,6.7.83,12.585,12.585,0,0,1,4.157,1.405q1.972,1.341,3.061,6.994a61.939,61.939,0,0,1,1.059,12.009,65.232,65.232,0,0,1-1.118,11.945q-1.094,5.589-3.071,6.8-1.788,1.086-7.058,1.852a85.041,85.041,0,0,1-11.338.83q-15.777.128-17.822-4.727-1.533-4.088-1.437-16.1T-177.135,234.741Zm3.827,1.086q-1.086,4.216-1.214,15.65t1.155,14.755q.631,1.469,7.277,2.012a88.147,88.147,0,0,0,13.829,0q7.186-.543,9.294-1.884.511-.255,1.022-2.427a45.5,45.5,0,0,0,.862-5.653,72.253,72.253,0,0,0,.351-7.25,64.733,64.733,0,0,0-.639-10.412q-.7-4.6-1.661-5.238c-.809-.554-2.837-1-6.1-1.341a76.974,76.974,0,0,0-10.572-.319,55.822,55.822,0,0,0-10.023.958c-.426.085-.836.181-1.214.287s-.719.2-.99.287-.527.17-.74.256-.373.149-.474.192S-173.307,235.784-173.307,235.827Zm14.947,25.551a10.04,10.04,0,0,1-6.382-2.044,8.845,8.845,0,0,1-3.194-6,10.543,10.543,0,0,1,.857-5.781,10.6,10.6,0,0,1,3.609-4.44,8.713,8.713,0,0,1,5.11-1.661,10.491,10.491,0,0,1,7.41,2.651,9.456,9.456,0,0,1,2.874,7.314,9.2,9.2,0,0,1-3.125,7.154A10.426,10.426,0,0,1-158.36,261.377Zm0-3.96a6.449,6.449,0,0,0,2.97-.735,6.371,6.371,0,0,0,2.4-2.14,5.466,5.466,0,0,0,.953-3.13,5.725,5.725,0,0,0-1.693-4.471,6.624,6.624,0,0,0-4.631-1.533,4.8,4.8,0,0,0-2.933,1.054,6.91,6.91,0,0,0-2.177,2.779,6.3,6.3,0,0,0-.511,3.513,5.05,5.05,0,0,0,1.82,3.513A6.069,6.069,0,0,0-158.36,257.417Zm12.839-14.755a2.561,2.561,0,0,1-1.884.767,2.57,2.57,0,0,1-1.884-.767,2.561,2.561,0,0,1-.767-1.884,2.561,2.561,0,0,1,.767-1.884,2.57,2.57,0,0,1,1.884-.767,2.561,2.561,0,0,1,1.884.767,2.541,2.541,0,0,1,.767,1.884A2.541,2.541,0,0,1-145.521,242.661Z" transform="translate(178.519 -229.652)" fill="#e41b23"/>
</svg>
