<svg xmlns="http://www.w3.org/2000/svg" xmlns:xlink="http://www.w3.org/1999/xlink" width="332.521" height="599.742" viewBox="0 0 332.521 599.742">
  <defs>
    <clipPath id="clip-path">
      <path id="Контур_68" data-name="Контур 68" d="M0,144H130.939V0H0Z" fill="none"/>
    </clipPath>
  </defs>
  <g id="Lijn_en_doodle" data-name="Lijn en doodle" transform="translate(-1277.374 -154.772)">
    <path id="Контур_66" data-name="Контур 66" d="M36.807,402.246S-27.116,271.133,13.518,178.46,120.958,82.037,163.8,124.1s10.116,97.116-19.634,66.808S92.4,116.312,144.166,0" transform="translate(1280.206 382.203) rotate(-23)" fill="none" stroke="#fff" stroke-width="5" stroke-dasharray="15"/>
    <g id="Сгруппировать_19" data-name="Сгруппировать 19" transform="matrix(0.974, -0.225, 0.225, 0.974, 1345.123, 184.227)">
      <g id="Сгруппировать_18" data-name="Сгруппировать 18" transform="translate(0 0)" clip-path="url(#clip-path)">
        <g id="Сгруппировать_17" data-name="Сгруппировать 17" transform="translate(0.001 -0.002)">
          <path id="Контур_67" data-name="Контур 67" d="M113.138,53.035q-3.928,8.043-7.223,14.572t-7.37,13.869q-4.077,7.337-7.389,12.288a60.269,60.269,0,0,1-6.642,8.4q-3.327,3.448-5.634,3.542-2.433.259-7.341-2.391a81.874,81.874,0,0,1-9.772-6.241Q56.9,93.478,50.343,88.916a122.46,122.46,0,0,0-11-6.973L34.27,79.166l3.891-4.292Q67.422,42.154,74,30.383l4.134,2.155,4.005,2.313a139.7,139.7,0,0,1-11.46,16.241q-7.668,9.66-21.9,25.686,3.387,1.947,9.228,5.866t11.438,7.646q5.6,3.729,8.088,5.337a217.848,217.848,0,0,0,12.5-19.445q8.17-13.809,14.583-27.146l4.263,2ZM49.375,85.2Q31.517,110.825,7.51,144l-3.762-2.773L0,138.6q24-33.172,41.733-58.636l3.895,2.615Zm1.971,14.616a90.435,90.435,0,0,0-11.633,31.151,55.43,55.43,0,0,0,14.134-10.118,50.057,50.057,0,0,0,9.176-13.2l2.582,1.166,2.6,1.309q-9.009,18.934-31.015,28.445l-4.575,1.92.493-4.947a94.677,94.677,0,0,1,13.3-38.665l2.468,1.467ZM121.711,1.052,126.231,0l1.052,4.494q2.665,10.228,3.446,25.9a150.87,150.87,0,0,1-1.35,29.857l-1.125,7.168-6.076-4.112q-45-30.232-57.882-38.522l-8.227-5.322L65.3,16.477q19.86-6.543,56.407-15.425m-.633,50.427a149.118,149.118,0,0,0-1.912-40.232q-25.692,6.157-41.677,11,14,9.318,43.59,29.232" fill="#fff"/>
        </g>
      </g>
    </g>
  </g>
</svg>
