<svg id="Сгруппировать_32" data-name="Сгруппировать 32" xmlns="http://www.w3.org/2000/svg" width="35.586" height="39.208" viewBox="0 0 35.586 39.208">
  <path id="Контур_118" data-name="Контур 118" d="M-76.016,154.081a8.8,8.8,0,0,1-3.2-2.206,6.5,6.5,0,0,1-1.594-3.138,6.8,6.8,0,0,1,.387-3.705,5.044,5.044,0,0,1,3.319-3.352,6.426,6.426,0,0,1,4.821.573q4.274,2.014,12.665,6.268t10.389,5.5a8.334,8.334,0,0,1,3.366,4.362,8.91,8.91,0,0,1,.112,5.723,7.429,7.429,0,0,1-3.569,4.417q-2.773,1.523-9.958,5.014c-.243.108-.517.234-.818.381q-2.865,1.361-6.686,3.16-.09.053-2.2,1.036t-2.477,1.144q-3.732,1.855-5.89,1.228t-3.114-4.062q-1.73-6.157,5.273-8.667a148.086,148.086,0,0,0,13.825-6.486Q-73.2,155.224-76.016,154.081Zm25.419,2.942q-1.864-1.2-10.208-5.422t-12.529-6.188a4.371,4.371,0,0,0-2.819-.491,2.228,2.228,0,0,0-1.683,1.473q-1.091,2.888,2.773,4.469,3.229,1.364,17.873,8.829a1.593,1.593,0,0,1,.863,1.555,1.586,1.586,0,0,1-.863,1.553q-12.736,6.6-17.19,8.23a6.7,6.7,0,0,0-2.979,1.8,2.638,2.638,0,0,0-.431,2.509c.334,1.162.839,1.8,1.523,1.906s1.931-.272,3.75-1.144c.243-.11,1.077-.5,2.5-1.174s2.153-1.006,2.184-1.006q3.82-1.8,6.684-3.164a9,9,0,0,1,.82-.381q7.093-3.432,9.82-4.959a4.3,4.3,0,0,0,2.069-2.535,4.916,4.916,0,0,0-.091-3.3A5.071,5.071,0,0,0-50.6,157.024Z" transform="translate(80.923 -141.441)" fill="#e41b23"/>
</svg>
