<svg xmlns="http://www.w3.org/2000/svg" width="134.219" height="144.244" viewBox="0 0 134.219 144.244">
  <path id="Контур_80" data-name="Контур 80" d="M-175.958,346.008q1.7-5.434,14.4-16.536a210.039,210.039,0,0,1,26.935-19.931q14.235-8.865,19.861-8.865,5.136,0,20.542,9.12a256.545,256.545,0,0,1,29.407,20.273q13.979,11.187,15.513,16.124c.469,1.7,1.08,6.99,1.89,15.84q1.172,13.3,1.691,26.1,1.044,21.309-.156,32.731c-.81,7.615-2.515,12.715-5.129,15.343q-8.183,8.013-62.564,8.68-18.39.192-30.927-.6a91.719,91.719,0,0,1-20.713-3.225q-8.2-2.472-10.413-6.563-3.921-8.865-3.836-43.386Q-179.346,356.592-175.958,346.008Zm11.095,15.7q-1.385,14.832-1.193,37.419.149,22.588,2.046,28.54a14.579,14.579,0,0,0,2.2.7,78.8,78.8,0,0,0,11.763,2.046A316.462,316.462,0,0,0-113.72,431.6q18.561-.17,35.288-1.875,16.685-1.705,18.07-3.069,1-.853,1.52-11.763t-.17-26.267q-.512-14.128-2.046-29.663Q-84.924,377.4-96.772,385.4t-15.414,8.183q-3.942,0-16.025-7.416Q-140.335,378.754-164.863,361.706Zm1.691-11.762a1.98,1.98,0,0,1,.511.341q13.979,9.887,25.486,17.559t17.644,11.322c4.105,2.458,6.421,3.68,7,3.68.554,0,2.8-1.35,6.719-4.006,3.935-2.685,9.575-6.762,16.977-12.275q11.06-8.268,24.889-18.667-8.034-7.352-23.2-17.559-9.036-6.308-17.729-11.337t-9.888-5.029c-.668,0-2.273.668-4.773,2.046s-5.683,3.3-9.532,5.8c-3.878,2.5-7.672,5.171-11.436,8.012q-5.626,4.092-10.726,8.425c-3.424,2.912-6.18,5.37-8.282,7.43A19.184,19.184,0,0,0-163.172,349.944Z" transform="translate(179.454 -300.676)" fill="#e41b23"/>
</svg>
