<svg xmlns="http://www.w3.org/2000/svg" width="47.806" height="47.044" viewBox="0 0 47.806 47.044">
  <path id="Контур_78" data-name="Контур 78" d="M-159.533,375.383l-.71.333-.667-.48q-14.14-10-18.759-19.854l-1.1-2.381,2.619.333a109.974,109.974,0,0,0,11.05.9,33.439,33.439,0,0,0,.333-8.38l-.1-1.476,1.424-.095q4.285-.286,21.143-.524h1.758l-.286,1.714a88.815,88.815,0,0,1-2.139,10.094q4.422.238,9.137.143l2.861-.048-1.623,2.38Q-141.774,368.237-159.533,375.383Zm12.526-17.049-1.861-.139.623-1.766a69.356,69.356,0,0,0,2.234-9.713q-13.093.19-17.759.429a34.136,34.136,0,0,1-.115,4.618q-.22,2.238-.4,3.19a8.408,8.408,0,0,1-.333,1.286,8.325,8.325,0,0,1-.385.956h-1a95.789,95.789,0,0,1-9.713-.623q4.666,7.713,15.855,15.807,14.331-6,21.044-13.712Q-143.25,358.667-147.008,358.334Zm-21.286-25.567-.333-1.52,1.527-.242q4.041-.571,24.421-2.19l1.571-.143v1.619a29.243,29.243,0,0,1-1.381,9.05l-.333.948-1,.052-21.469,1.091-1.289.048-.238-1.238Q-167.532,336.48-168.294,332.767Zm23.282,4.714a29.33,29.33,0,0,0,.9-5.618q-15.759,1.285-21,1.861.476,2.422.9,4.71Z" transform="translate(180.768 -328.672)" fill="#e41b23"/>
</svg>
