<svg id="Locatie_icon" data-name="Locatie icon" xmlns="http://www.w3.org/2000/svg" width="39.591" height="50.949" viewBox="0 0 39.591 50.949">
  <path id="Контур_13" data-name="Контур 13" d="M325.175,257.478a5.674,5.674,0,1,0-1.662,4.012,5.449,5.449,0,0,0,1.662-4.012m-13.286,20.887a39.045,39.045,0,0,1-6.156-8.693,18.754,18.754,0,0,1-1.937-8.27q0-8.083,4.258-12.43t12.646-4.347q7.3,0,11.22,3.894t3.924,11.437a26.973,26.973,0,0,1-3.776,13.463,62.184,62.184,0,0,1-11.319,13.826c-2.331-2.252-3.707-3.56-4.1-3.924-1.918-1.937-3.511-3.589-4.76-4.956m-6.549-32.049Q300,251.8,300,261.4a22.261,22.261,0,0,0,2.2,9.686,41.547,41.547,0,0,0,6.913,9.8c1.288,1.406,2.911,3.1,4.887,5.074q.6.6,2.891,2.832c1.534,1.495,2.36,2.291,2.478,2.409a1.768,1.768,0,0,0,1.3.541,1.88,1.88,0,0,0,1.3-.482,68.524,68.524,0,0,0,13.246-15.724,30.781,30.781,0,0,0,4.376-15.606q0-9.116-5.005-14.131T320.7,240.8c-6.667.02-11.8,1.849-15.361,5.517" transform="translate(-300 -240.8)" fill="#fff"/>
</svg>
