<svg xmlns="http://www.w3.org/2000/svg" width="511.036" height="117.847" viewBox="0 0 511.036 117.847">
  <g id="Logo_Joinuz" data-name="Logo Joinuz" transform="translate(-25.8 -14.2)">
    <g id="Сгруппировать_6" data-name="Сгруппировать 6" transform="translate(25.8 14.2)">
      <path id="Контур_15" data-name="Контур 15" d="M207.5,117.453c4.843,0,13.754-1.485,13.754-12.721V58.82a2.66,2.66,0,0,0-2.97-2.97h-5.424V41.192H229.2c6.457,0,9.169,2.841,9.169,9.169v55.727c0,23.117-19.308,25.959-28.8,25.959a30.926,30.926,0,0,1-5.166-.387V117.2a18.4,18.4,0,0,0,3.1.258M221.964,14.2h14.981V30.021H221.964Z" transform="translate(-89.071 -14.2)"/>
      <path id="Контур_16" data-name="Контур 16" d="M309.511,53.5c21.116,0,37.84,14.981,37.84,36.1,0,21.245-16.789,36.1-37.84,36.1-20.922,0-37.711-14.852-37.711-36.1,0-21.051,16.789-36.1,37.711-36.1m0,57.6c11.236,0,20.534-8.653,20.534-21.5,0-12.721-9.3-21.5-20.534-21.5-11.107,0-20.405,8.782-20.405,21.5,0,12.85,9.3,21.5,20.405,21.5" transform="translate(-112.949 -28.123)"/>
      <path id="Контур_17" data-name="Контур 17" d="M403.33,58.756a2.66,2.66,0,0,0-2.97-2.97H395V41.192h16.337c6.328,0,9.04,2.841,9.04,9.169v42.3a2.718,2.718,0,0,0,2.97,2.97h5.424v14.465H412.435c-6.328,0-9.04-2.712-9.04-9.169V58.756Zm.839-44.556h14.852V30.021H404.169Z" transform="translate(-156.594 -14.2)"/>
      <path id="Контур_18" data-name="Контур 18" d="M465.095,72.643a2.66,2.66,0,0,0-2.97-2.97H456.7V55.079h15.821c6.07,0,9.04,2.841,9.04,7.684v2a19.875,19.875,0,0,1-.258,2.97h.258c2.97-5.812,10.4-14.335,24.344-14.335,15.3,0,24.086,8.007,24.086,26.217V106.48a2.718,2.718,0,0,0,2.97,2.97h5.424v14.465H522.049c-6.457,0-9.169-2.712-9.169-9.169V83.1c0-8.395-2.131-14.077-10.784-14.077-9.169,0-16.079,5.812-18.533,14.077a28.4,28.4,0,0,0-1.356,9.169v31.641H465.159V72.643Z" transform="translate(-178.452 -28.087)"/>
      <path id="Контур_19" data-name="Контур 19" d="M593.495,73.564a2.66,2.66,0,0,0-2.97-2.97H585.1V56h16.337c6.328,0,9.04,2.841,9.04,9.04v31.77c0,8.395,2.131,14.077,10.655,14.077,12.463,0,19.308-10.978,19.308-23.247V56h17.177v51.465a2.718,2.718,0,0,0,2.97,2.97h5.424V124.9H650.255c-5.941,0-9.04-2.841-9.04-7.684v-1.873c0-1.614.129-3.1.129-3.1h-.258c-3.229,7.168-11.882,14.335-23.763,14.335-14.723,0-23.763-7.426-23.763-26.217v-26.8Z" transform="translate(-223.939 -29.008)" fill="#e41b23"/>
      <path id="Контур_20" data-name="Контур 20" d="M720.3,115.766l31.77-38.809a52.335,52.335,0,0,1,5.812-6.328v-.258a55.979,55.979,0,0,1-6.328.258H739.091a2.718,2.718,0,0,0-2.97,2.97v3.939H720.558V65.269c0-6.328,2.712-9.169,9.169-9.169h50.561v9.3l-31.77,38.809a68.438,68.438,0,0,1-5.812,6.328v.258a38.926,38.926,0,0,1,6.522-.387h15.11a2.66,2.66,0,0,0,2.97-2.97v-3.81h15.562v12.14c0,6.457-2.712,9.169-9.04,9.169H720.3Z" transform="translate(-271.835 -29.044)" fill="#e41b23"/>
      <path id="Контур_21" data-name="Контур 21" d="M43.687,130.7l-.387-1.033c-.452-5.36,1.873-8.911,6.909-10.784L96.9,102.864v-1.227L50.209,84.783C45.172,82.911,42.847,79.359,43.3,74l.452-1.291c3.874-8.976,17.693-2.841,17.693-2.841l54.823,20.986V56.5H25.8v90.532l90.4-.258.129-33.9L61.445,133.795s-12.85,6.651-17.758-3.1" transform="translate(-25.8 -29.185)" fill="#e41b23"/>
    </g>
    <g id="Сгруппировать_7" data-name="Сгруппировать 7" transform="translate(185.426 115.968)">
      <path id="Контур_22" data-name="Контур 22" d="M278.037,176.033a3.88,3.88,0,0,1,3.616,2.131h.065a5.724,5.724,0,0,1-.065-.839V171.9h1.485v15.562h-1.485V186.3a3.551,3.551,0,0,1,.065-.775h-.065a4.011,4.011,0,0,1-3.81,2.26c-2.97,0-4.843-2.389-4.843-5.876C273.065,178.357,275.131,176.033,278.037,176.033Zm.065,10.332c1.873,0,3.616-1.356,3.616-4.52,0-2.26-1.162-4.456-3.552-4.456-2,0-3.616,1.679-3.616,4.456C274.614,184.621,276.035,186.365,278.1,186.365Z" transform="translate(-273 -171.835)"/>
      <path id="Контур_23" data-name="Контур 23" d="M299.124,178.3c3.1,0,4.649,2.389,4.649,5.166,0,.258-.065.775-.065.775h-8.524a4.184,4.184,0,0,0,4.326,4.391,5.218,5.218,0,0,0,3.422-1.356l.71,1.162a6.392,6.392,0,0,1-4.133,1.55,5.6,5.6,0,0,1-5.812-5.812C293.635,180.5,296.089,178.3,299.124,178.3Zm3.1,4.714c-.065-2.325-1.485-3.422-3.164-3.422a3.721,3.721,0,0,0-3.81,3.422Z" transform="translate(-280.333 -174.103)"/>
      <path id="Контур_24" data-name="Контур 24" d="M323.665,171.8h1.485v5.424a6.1,6.1,0,0,1-.065.9h.065A4.008,4.008,0,0,1,328.96,176c2.97,0,4.843,2.389,4.843,5.876,0,3.552-2.131,5.812-5.037,5.812a4.143,4.143,0,0,1-3.681-2.2h-.065a6.1,6.1,0,0,1,.065.9v.969H323.6V171.8Zm5.037,14.594c2,0,3.616-1.679,3.616-4.52,0-2.712-1.421-4.456-3.552-4.456-1.873,0-3.616,1.356-3.616,4.52C325.15,184.134,326.312,186.394,328.7,186.394Z" transform="translate(-290.926 -171.8)"/>
      <path id="Контур_25" data-name="Контур 25" d="M348.589,178.3c3.1,0,4.649,2.389,4.649,5.166,0,.258-.065.775-.065.775h-8.588a4.184,4.184,0,0,0,4.326,4.391,5.218,5.218,0,0,0,3.422-1.356l.71,1.162a6.392,6.392,0,0,1-4.133,1.55,5.6,5.6,0,0,1-5.812-5.812C343.1,180.5,345.554,178.3,348.589,178.3Zm3.164,4.714c-.065-2.325-1.485-3.422-3.164-3.422a3.721,3.721,0,0,0-3.81,3.422Z" transform="translate(-297.834 -174.103)"/>
      <path id="Контур_26" data-name="Контур 26" d="M363.075,187.276a4.768,4.768,0,0,0,3.358,1.356c1.227,0,2.26-.581,2.26-1.743,0-2.454-6.005-1.873-6.005-5.489,0-2,1.808-3.1,3.81-3.1a4.691,4.691,0,0,1,3.422,1.227l-.71,1.162a3.956,3.956,0,0,0-2.777-1.033c-1.162,0-2.2.517-2.2,1.743,0,2.454,6.005,1.808,6.005,5.489,0,1.808-1.55,3.1-3.81,3.1a5.7,5.7,0,0,1-4.133-1.614Z" transform="translate(-304.636 -174.103)"/>
      <path id="Контур_27" data-name="Контур 27" d="M379.085,178.42H377.6v-1.291h1.485V173.9h1.485v3.229h2.777v1.291H380.57v5.553c0,2.648,1.679,2.97,2.518,2.97a1.787,1.787,0,0,0,.517-.065v1.356a2.929,2.929,0,0,1-.646.065c-1.291,0-3.874-.452-3.874-4.133V178.42Z" transform="translate(-310.056 -172.544)"/>
      <path id="Контур_28" data-name="Контур 28" d="M395.389,178.3c3.1,0,4.649,2.389,4.649,5.166,0,.258-.065.775-.065.775h-8.588a4.184,4.184,0,0,0,4.326,4.391,5.218,5.218,0,0,0,3.422-1.356l.71,1.162a6.392,6.392,0,0,1-4.133,1.55,5.6,5.6,0,0,1-5.812-5.812C389.9,180.5,392.354,178.3,395.389,178.3Zm3.1,4.714c-.065-2.325-1.485-3.422-3.164-3.422a3.721,3.721,0,0,0-3.81,3.422Z" transform="translate(-314.413 -174.103)"/>
      <path id="Контур_29" data-name="Контур 29" d="M420,171.8h1.485v5.424a6.1,6.1,0,0,1-.065.9h.065A4.008,4.008,0,0,1,425.3,176c2.97,0,4.843,2.389,4.843,5.876,0,3.552-2.131,5.812-5.037,5.812a4.143,4.143,0,0,1-3.681-2.2h-.065a6.1,6.1,0,0,1,.065.9v.969H420Zm5.037,14.594c2,0,3.616-1.679,3.616-4.52,0-2.712-1.421-4.456-3.552-4.456-1.873,0-3.616,1.356-3.616,4.52C421.485,184.134,422.648,186.394,425.037,186.394Z" transform="translate(-325.077 -171.8)"/>
      <path id="Контур_30" data-name="Контур 30" d="M446.08,182.785h.646v-.258c0-2.131-1.162-2.906-2.777-2.906a5.481,5.481,0,0,0-3.164,1.033l-.71-1.162a6.445,6.445,0,0,1,4-1.291c2.712,0,4.2,1.485,4.2,4.262v7.232h-1.421v-1.227a5.1,5.1,0,0,1,.065-.9h-.065a3.99,3.99,0,0,1-3.745,2.389c-1.873,0-3.81-1.1-3.81-3.293C439.235,182.914,444.143,182.785,446.08,182.785Zm-2.841,5.876c2.131,0,3.422-2.2,3.422-4.133v-.517h-.646c-1.743,0-5.23.065-5.23,2.518A2.2,2.2,0,0,0,443.239,188.661Z" transform="translate(-331.914 -174.067)"/>
      <path id="Контур_31" data-name="Контур 31" d="M458.8,178.558h1.485v1.679a6.1,6.1,0,0,1-.065.9h.065a4.716,4.716,0,0,1,4.456-2.841c2.777,0,3.745,1.55,3.745,4.326v7.1H467v-6.716c0-1.743-.258-3.293-2.389-3.293a4.208,4.208,0,0,0-4.068,3.164,5.5,5.5,0,0,0-.194,1.485v5.36h-1.485V178.558Z" transform="translate(-338.822 -174.103)"/>
      <path id="Контур_32" data-name="Контур 32" d="M483.789,178.3c3.1,0,4.649,2.389,4.649,5.166,0,.258-.065.775-.065.775h-8.588a4.183,4.183,0,0,0,4.326,4.391,5.218,5.218,0,0,0,3.422-1.356l.71,1.162a6.392,6.392,0,0,1-4.133,1.55,5.6,5.6,0,0,1-5.812-5.812C478.3,180.5,480.818,178.3,483.789,178.3Zm3.164,4.714c-.065-2.325-1.485-3.422-3.164-3.422a3.721,3.721,0,0,0-3.81,3.422Z" transform="translate(-345.73 -174.103)"/>
      <path id="Контур_33" data-name="Контур 33" d="M498.9,178.558h1.485v1.679a6.1,6.1,0,0,1-.065.9h.065a4.716,4.716,0,0,1,4.456-2.841c2.777,0,3.745,1.55,3.745,4.326v7.1H507.1v-6.716c0-1.743-.258-3.293-2.389-3.293a4.208,4.208,0,0,0-4.068,3.164,5.5,5.5,0,0,0-.194,1.485v5.36h-1.485V178.558Z" transform="translate(-353.028 -174.103)"/>
      <path id="Контур_34" data-name="Контур 34" d="M533.776,178.3a5.723,5.723,0,0,1,5.876,5.812,5.877,5.877,0,1,1-5.876-5.812Zm0,10.332a4.373,4.373,0,0,0,4.326-4.52,4.327,4.327,0,1,0-8.653,0A4.373,4.373,0,0,0,533.776,188.632Z" transform="translate(-363.302 -174.103)"/>
      <path id="Контур_35" data-name="Контур 35" d="M550.9,178.558h1.485v1.679a6.1,6.1,0,0,1-.065.9h.065a4.632,4.632,0,0,1,4.068-2.841,3.151,3.151,0,0,1,3.487,2.777H560a4.52,4.52,0,0,1,4.133-2.777c2.712,0,3.681,1.55,3.681,4.326v7.1h-1.485v-6.716c0-1.808-.387-3.358-2.389-3.358a4.029,4.029,0,0,0-3.552,3.164,6.505,6.505,0,0,0-.194,1.614v5.3h-1.485v-6.716c0-1.679-.258-3.358-2.325-3.358-1.808,0-3.164,1.55-3.681,3.293a5.539,5.539,0,0,0-.129,1.485v5.3h-1.485V178.558Z" transform="translate(-371.45 -174.103)"/>
      <path id="Контур_36" data-name="Контур 36" d="M592.065,171.8h1.485v12.656c0,1.485.646,1.679,1.227,1.679h.387v1.356a2.664,2.664,0,0,1-.581.065c-.9,0-2.583-.258-2.583-2.712V171.8Z" transform="translate(-386.01 -171.8)"/>
      <path id="Контур_37" data-name="Контур 37" d="M605.389,178.3c3.1,0,4.649,2.389,4.649,5.166,0,.258-.065.775-.065.775h-8.588a4.183,4.183,0,0,0,4.326,4.391,5.218,5.218,0,0,0,3.422-1.356l.71,1.162a6.392,6.392,0,0,1-4.133,1.55,5.6,5.6,0,0,1-5.812-5.812C599.9,180.5,602.418,178.3,605.389,178.3Zm3.164,4.714c-.065-2.325-1.485-3.422-3.164-3.422a3.721,3.721,0,0,0-3.81,3.422Z" transform="translate(-388.809 -174.103)"/>
      <path id="Контур_38" data-name="Контур 38" d="M620.465,171.8h1.485v8.717h1.743l3.358-4.262h1.808l-3.874,4.843v.065l4.262,6.264h-1.808l-3.745-5.618h-1.808v5.618H620.4V171.8Z" transform="translate(-396.071 -171.8)"/>
      <path id="Контур_39" data-name="Контур 39" d="M638.1,171.8h1.485v8.717h1.744l3.358-4.262h1.808L642.62,181.1v.065l4.262,6.264h-1.743l-3.745-5.618h-1.808v5.618H638.1V171.8Z" transform="translate(-402.341 -171.8)"/>
      <path id="Контур_40" data-name="Контур 40" d="M659.689,178.3c3.1,0,4.649,2.389,4.649,5.166,0,.258-.065.775-.065.775h-8.588a4.184,4.184,0,0,0,4.326,4.391,5.218,5.218,0,0,0,3.422-1.356l.71,1.162a6.392,6.392,0,0,1-4.133,1.55,5.6,5.6,0,0,1-5.812-5.812C654.2,180.5,656.654,178.3,659.689,178.3Zm3.164,4.714c-.065-2.325-1.485-3.422-3.164-3.422a3.721,3.721,0,0,0-3.81,3.422Z" transform="translate(-408.045 -174.103)"/>
      <path id="Контур_41" data-name="Контур 41" d="M674.7,178.665h1.485v2a6.1,6.1,0,0,1-.065.9h.065a3.773,3.773,0,0,1,3.552-2.97,2.665,2.665,0,0,1,.581.065v1.485a2.665,2.665,0,0,0-.581-.065,3.537,3.537,0,0,0-3.229,2.906,8.6,8.6,0,0,0-.323,2.2V189.9H674.7Z" transform="translate(-415.307 -174.209)"/>
      <path id="Контур_42" data-name="Контур 42" d="M696.785,178.42H695.3v-1.291h1.485V173.9h1.485v3.229h2.777v1.291H698.27v5.553c0,2.648,1.679,2.97,2.518,2.97a1.787,1.787,0,0,0,.517-.065v1.356a2.93,2.93,0,0,1-.646.065c-1.291,0-3.874-.452-3.874-4.133Z" transform="translate(-422.605 -172.544)"/>
      <path id="Контур_43" data-name="Контур 43" d="M713.123,178.3c3.1,0,4.649,2.389,4.649,5.166,0,.258-.065.775-.065.775h-8.524a4.184,4.184,0,0,0,4.327,4.391,5.218,5.218,0,0,0,3.422-1.356l.71,1.162a6.392,6.392,0,0,1-4.133,1.55,5.6,5.6,0,0,1-5.812-5.812C707.635,180.5,710.089,178.3,713.123,178.3Zm3.1,4.714c-.065-2.325-1.485-3.422-3.164-3.422a3.721,3.721,0,0,0-3.81,3.422Z" transform="translate(-426.997 -174.103)"/>
      <path id="Контур_44" data-name="Контур 44" d="M737.465,171.8h1.485v12.656c0,1.485.646,1.679,1.227,1.679h.387v1.356a2.664,2.664,0,0,1-.581.065c-.9,0-2.583-.258-2.583-2.712V171.8Z" transform="translate(-437.52 -171.8)"/>
      <path id="Контур_45" data-name="Контур 45" d="M750.789,178.3c3.1,0,4.649,2.389,4.649,5.166,0,.258-.065.775-.065.775h-8.588a4.184,4.184,0,0,0,4.326,4.391,5.218,5.218,0,0,0,3.422-1.356l.71,1.162a6.392,6.392,0,0,1-4.133,1.55,5.6,5.6,0,0,1-5.812-5.812C745.3,180.5,747.818,178.3,750.789,178.3Zm3.164,4.714c-.065-2.325-1.485-3.422-3.164-3.422a3.721,3.721,0,0,0-3.81,3.422Z" transform="translate(-440.318 -174.103)"/>
      <path id="Контур_46" data-name="Контур 46" d="M763.5,178.7h1.614l3.1,8.2c.194.581.387,1.356.387,1.356h.065s.194-.775.387-1.356l3.1-8.2h1.55l-4.262,11.171h-1.614Z" transform="translate(-446.766 -174.244)"/>
      <path id="Контур_47" data-name="Контур 47" d="M787.189,178.3c3.1,0,4.649,2.389,4.649,5.166,0,.258-.065.775-.065.775h-8.588a4.184,4.184,0,0,0,4.326,4.391,5.218,5.218,0,0,0,3.422-1.356l.71,1.162a6.392,6.392,0,0,1-4.133,1.55,5.6,5.6,0,0,1-5.812-5.812C781.7,180.5,784.154,178.3,787.189,178.3Zm3.1,4.714c-.065-2.325-1.485-3.422-3.164-3.422a3.721,3.721,0,0,0-3.81,3.422Z" transform="translate(-453.213 -174.103)"/>
      <path id="Контур_48" data-name="Контур 48" d="M802.2,178.558h1.485v1.679a6.1,6.1,0,0,1-.065.9h.065a4.716,4.716,0,0,1,4.456-2.841c2.777,0,3.745,1.55,3.745,4.326v7.1H810.4v-6.716c0-1.743-.258-3.293-2.389-3.293a4.208,4.208,0,0,0-4.068,3.164,5.5,5.5,0,0,0-.194,1.485v5.36h-1.485V178.558Z" transform="translate(-460.476 -174.103)"/>
    </g>
  </g>
</svg>
