<svg id="Mobiel_icon" data-name="Mobiel icon" xmlns="http://www.w3.org/2000/svg" width="33.426" height="49.467" viewBox="0 0 33.426 49.467">
  <path id="Контур_14" data-name="Контур 14" d="M340.062,280.638a6.3,6.3,0,0,0,2.763,2.714,9.752,9.752,0,0,0,4.474.924,8.153,8.153,0,0,0,6.068-2.144,8.05,8.05,0,0,0,2.114-5.94,1.217,1.217,0,0,0-.374-.865,1.258,1.258,0,0,0-1.79,0,1.179,1.179,0,0,0-.374.865q0,5.532-5.635,5.527a7.4,7.4,0,0,1-3.206-.6,3.826,3.826,0,0,1-1.839-1.79,7.115,7.115,0,0,1-.6-3.147,1.218,1.218,0,0,0-.374-.865,1.258,1.258,0,0,0-1.79,0,1.179,1.179,0,0,0-.374.865,9.34,9.34,0,0,0,.934,4.455m12.981-11.5a2.4,2.4,0,0,0,.846-.846,2.235,2.235,0,0,0-.384-2.714,2.279,2.279,0,0,0-3.245,0,2.221,2.221,0,0,0,0,3.2,2.248,2.248,0,0,0,1.652.679,2.054,2.054,0,0,0,1.131-.315m-9.185,0a2.775,2.775,0,0,0,.846-.846,2.034,2.034,0,0,0,.325-1.111,2.187,2.187,0,0,0-.679-1.6,2.279,2.279,0,0,0-3.245,0,2.277,2.277,0,0,0,1.593,3.875,2.041,2.041,0,0,0,1.16-.315m-12.391-18.085c-.177,1.072-.344,2.99-.492,5.773q-.266,5.694-.275,13.935,0,19.958,1.249,23.041,1.46,3.688,15.125,3.412a63.743,63.743,0,0,0,10.031-.875q4.174-.752,5.261-2.114,1.947-2.331,1.741-23.2-.118-8.024-.492-14.151c-.177-2.891-.364-4.858-.541-5.91a3.273,3.273,0,0,0-.974-2.114c-.944-.718-5.831-1.082-14.692-1.082q-13.394-.059-14.908,1.082a3.509,3.509,0,0,0-1.033,2.2m9.332,3.235a2.32,2.32,0,0,0,.816,1.17,2.158,2.158,0,0,0,1.357.462h8.673a2.14,2.14,0,0,0,1.357-.462,2.338,2.338,0,0,0,.816-1.17l.865-2.98c.62,0,1.17.02,1.682.049,1.3.079,2.311.148,3.039.216a1.442,1.442,0,0,0,.374.049c.039.256.079.521.108.816.147,1.121.275,2.655.374,4.6q.383,6.077.433,14.043.1,8.467-.167,14.259c-.108,2.095-.246,3.757-.433,4.986a9.836,9.836,0,0,1-.275,1.465.422.422,0,0,1-.059.167v.108c-.285.364-1.741.738-4.356,1.111a73.513,73.513,0,0,1-8.437.679,58.237,58.237,0,0,1-8.565-.433,11.258,11.258,0,0,1-2.763-.7c-.256-.108-.452-.2-.6-.275v.049a45.014,45.014,0,0,1-.678-7.375q-.3-6.284-.3-14.367,0-8.128.275-13.768c.108-1.947.216-3.471.325-4.553.069-.324.128-.6.167-.816a1.624,1.624,0,0,1,.433-.049c.757-.108,1.79-.2,3.088-.275.472,0,.974-.02,1.514-.049Z" transform="translate(-330.7 -247.771)" fill="#fff"/>
</svg>
