<svg xmlns="http://www.w3.org/2000/svg" width="127.148" height="130.387" viewBox="0 0 127.148 130.387">
  <g id="Сгруппировать_26" data-name="Сгруппировать 26" transform="translate(0 0)">
    <path id="Контур_82" data-name="Контур 82" d="M-2699.363,144.634c-.109-1.187-.229-2.388-.324-3.59-.076-.961-.142-1.924-.17-2.888-.027-.9.248-1.183,1.132-1.253a32.019,32.019,0,0,1,6.7.168c.075.01.151.014.214.019,0-.647.01-1.285,0-1.923a58.724,58.724,0,0,1,.453-8.315c.037-.3.191-.348.426-.368q2.825-.243,5.648-.49c.126-.011.252-.026.407-.042,0-.548,0-1.073,0-1.6,0-2.084.007-4.168-.015-6.252,0-.431.168-.583.562-.646,2.055-.332,4.106-.692,6.163-1.016.424-.067.606-.2.67-.669a53.55,53.55,0,0,0,.484-8.156c0-.153-.02-.306-.034-.5h-7.944c-.026-.314-.053-.59-.072-.866-.117-1.668-.249-3.335-.342-5a6.709,6.709,0,0,1,.384-2.77,1.884,1.884,0,0,1,1.864-1.365c5.833-.262,11.664-.583,17.495-.88,1.284-.066,2.569-.133,3.854-.172a1.059,1.059,0,0,1,1.258,1.056,24.6,24.6,0,0,1-.019,7.493c-.1.62-.32.794-1.049.831-1.8.092-3.6.169-5.4.253-.126.006-.253.015-.4.024.062.787.137,1.551.178,2.316a31.6,31.6,0,0,1-.2,6.122,1.7,1.7,0,0,1-1.994,1.726,58.345,58.345,0,0,0-7.932.561c0,.353,0,.695,0,1.037,0,2.507-.014,5.015,0,7.522,0,.41-.158.563-.542.614-2.138.287-4.274.589-6.511.9-.087.573-.211,1.264-.3,1.96a60.834,60.834,0,0,0-.161,8.208c.031,2.287-.021,4.576-.064,6.863-.013.682-.283.9-.975.917q-4.976.091-9.952.169C-2697.016,144.648-2698.16,144.634-2699.363,144.634Z" transform="translate(2714.208 -62.016)" fill="#e41b23"/>
    <path id="Контур_83" data-name="Контур 83" d="M-1532.757,420.615c.039-.642.06-1.206.11-1.767q.321-3.65.656-7.3c.014-.153.039-.306.067-.457a1.324,1.324,0,0,1,1.356-1.278q2.328-.139,4.663-.148c1.142,0,2.285.092,3.469.146.026-.331.059-.659.077-.988q.288-5.22.571-10.44c0-.064.006-.129.011-.193.08-1.008.273-1.231,1.283-1.314,2.191-.181,4.385-.336,6.577-.5l2.925-.221c.073.741.153,1.453.212,2.166a98.4,98.4,0,0,1,.226,10.758c-.1,3.741-.307,7.479-.368,11.22-.05,3.033.045,6.068.076,9.1,0,.09,0,.179,0,.336l-12.529-.25c-.235-3-.469-5.964-.7-8.939-1.508.066-2.941.17-4.376.181S-1531.3,420.658-1532.757,420.615Z" transform="translate(1637.2 -338.945)" fill="#e41b23"/>
    <path id="Контур_84" data-name="Контур 84" d="M-2867.032,441.373a12.357,12.357,0,0,0-.272,4.042c.123,1.37.317,2.733.469,4.1.082.74.14,1.482.217,2.3-5.648-.051-11.231-.453-16.889-.8q-.137-19.965-.273-39.912c3.063-.388,6.088.05,9.156,0-.052.8-.1,1.549-.151,2.3-.3,4.259-.655,8.514-.9,12.776-.171,3.029-.24,6.065-.268,9.1-.017,1.823.129,3.648.206,5.472.008.179.039.356.07.623Z" transform="translate(2883.932 -352.592)" fill="#e41b23"/>
    <path id="Контур_85" data-name="Контур 85" d="M-1591.361-327.2c-.1,3.342-.182,6.684-.292,10.026-.036,1.091-.086,2.186-.209,3.27a4.59,4.59,0,0,1-1.795,2.918,2.4,2.4,0,0,1-1.631.486c-2.251,0-4.5-.014-6.753,0-3.074.024-6.147.048-9.221.119-2.082.049-4.162.175-6.243.274a1.806,1.806,0,0,1-2.07-1.484,9.532,9.532,0,0,1-.267-1.859c-.164-3.752-.3-7.5-.449-11.257q-.251-6.265-.508-12.529c-.013-.321-.011-.643-.006-.964a2.925,2.925,0,0,1,3.182-3.137c1.735.012,3.471.146,5.206.129,4.307-.041,8.614-.106,12.919-.223,2.107-.057,4.209-.255,6.314-.384a1.8,1.8,0,0,1,1.861,1.8c.012,2.637,0,5.274,0,7.911q0,2.45,0,4.9Zm-24.265-8.935c.322,7.972.641,12.8.96,20.724.09.013-1.4.027-1.355.026,2.286-.082,4.573-.21,6.86-.24,4.346-.058,8.692-.061,13.038-.085.595,0-.847-.086-.827-.68.121-3.726.275-5.907.348-9.634.076-3.857.071-6.171.1-10.028,0-.135,0-.27,0-.428A144.635,144.635,0,0,1-1615.626-336.138Z" transform="translate(1718.454 342.059)" fill="#e41b23"/>
    <path id="Контур_86" data-name="Контур 86" d="M-2870.7-343.141q6.579,0,13.157,0a1.845,1.845,0,0,1,1.929,2.107q-.124,3.274-.115,6.552c0,2.4.092,4.808.116,7.212.03,2.906.051,5.812.036,8.718a25.594,25.594,0,0,1-.216,2.766,1.772,1.772,0,0,1-2.011,1.618c-2.361-.111-4.724-.264-7.087-.279-3.51-.022-7.021.045-10.53.1-2.635.044-5.269.133-7.9.2a1.822,1.822,0,0,1-1.977-1.847c-.03-1.221-.042-2.443-.063-3.664q-.122-6.981-.243-13.961c-.045-2.584-.095-5.168-.13-7.752a1.812,1.812,0,0,1,1.919-1.9q3.318.02,6.636.029c2.16,0,4.321,0,6.48,0Zm-9.507,5.161c.124,7.2.248,11.344.373,18.6,7.514-.186,11.568-.389,19.057-.168.193-7.175-.267-11.216-.156-18.429Z" transform="translate(2885.74 343.392)" fill="#e41b23"/>
    <path id="Контур_87" data-name="Контур 87" d="M-1581.486,994.286a33.911,33.911,0,0,1-.051-6.8c0-.025.008-.051.012-.076.192-1.018.369-1.209,1.388-1.411a19.019,19.019,0,0,1,4.378-.193c1.989.068,3.986.087,5.973,0,1.834-.08,3.661-.318,5.49-.5.845-.085.923-.152,1.04-.985a17.053,17.053,0,0,0,.2-2.224c.023-2.8.01-5.609.01-8.413q0-2.855,0-5.71c0-.154.014-.308.03-.462a1.93,1.93,0,0,1,1.891-1.969c1.6-.165,3.2-.255,4.806-.375.346-.026.692-.049,1.1-.077-.652,9.532-.726,19.064-.725,28.7Z" transform="translate(1682.358 -863.962)" fill="#e41b23"/>
    <path id="Контур_88" data-name="Контур 88" d="M-2885.6,1000.1q0-4.919,0-9.838c0-.6-.023-1.208-.027-1.813a1.828,1.828,0,0,1,1.916-1.869q5.611.149,11.221.288,5.629.148,11.258.305a1.853,1.853,0,0,1,2.033,1.865c.353,4.653.729,9.306.992,13.965a45.515,45.515,0,0,1-.409,8.928c-.025.178-.015.361-.049.537a1.765,1.765,0,0,1-1.784,1.465c-1.8.105-3.594.243-5.393.246-3.6.006-7.2-.045-10.8-.123-2.275-.049-4.548-.192-6.822-.287a2,2,0,0,1-1.935-1.02,2.646,2.646,0,0,1-.23-1.114c-.016-3.846-.01-7.692-.01-11.537Zm5.513-8.281c-.008.151-.324.252-.325.354-.014,3.627.278,5.711.271,9.338-.006,2.766,0,3.987-.009,6.753,0,.295-.243.4.07.411,1.889.062,2.234.162,4.123.217,2.108.061,4.217.123,6.325.12,2.405,0,3.265-.078,5.67-.117.241,0,.377-.068.385-.345.064-2.261.258-2.983.181-5.239-.117-3.391-.418-6.775-.649-10.162-.053-.78-.139-.013-.213-.817C-2870.675,992.16-2873.663,991.989-2880.084,991.818Z" transform="translate(2885.645 -883.792)" fill="#e41b23"/>
    <path id="Контур_89" data-name="Контур 89" d="M-1702.372,155.815v7.257h-7.715c-.141-2.351.152-4.745-.273-7.05l-9.174-.138c-.148-.713-.357-1.518-.476-2.336a16.758,16.758,0,0,1,.076-4.385c.084-.7.434-.991,1.176-1.006,3.3-.066,6.608-.153,9.913-.184,6.894-.065,13.787-.1,20.681-.147,1.479-.01,2.959,0,4.438,0,.087,0,.174.008.209.009v7.028C-1689.882,154.947-1696.155,155.242-1702.372,155.815Z" transform="translate(1810.103 -109.783)" fill="#e41b23"/>
    <path id="Контур_90" data-name="Контур 90" d="M-2076.247,273.8c0-.527,0-1,0-1.473q-.027-4.592-.056-9.184-.028-4.187-.061-8.373c0-.66,0-.666.646-.683q4.666-.125,9.333-.243c.115,0,.229,0,.385,0-.071,6.859-.142,13.691-.212,20.6l-9.48-.388V284.6h-11.362c-.083-3.442-.164-6.831-.247-10.267A64.151,64.151,0,0,1-2076.247,273.8Z" transform="translate(2148.936 -207.618)" fill="#e41b23"/>
    <path id="Контур_91" data-name="Контур 91" d="M-1652.633,880.441c.139-3.474.276-6.9.414-10.33h-6.762c0-.652-.019-1.329,0-2,.094-2.815.2-5.63.294-8.445.01-.328.1-.444.442-.445,2.289-.011,4.578-.045,6.868-.061.75-.005.853.1.815.855-.143,2.826-.3,5.651-.444,8.477-.011.216,0,.433,0,.7.375,0,.728.007,1.08,0q4.455-.1,8.91-.2c.45-.01.533.045.537.525.018,2.1.04,4.194.021,6.29-.013,1.478-.1,2.956-.13,4.434-.008.4-.179.534-.558.549a79.292,79.292,0,0,1-9.137-.152C-1651.051,880.573-1651.818,880.507-1652.633,880.441Z" transform="translate(1753.687 -766.206)" fill="#e41b23"/>
    <path id="Контур_92" data-name="Контур 92" d="M-2436.333,1168.27c.129-2.391.258-4.784.39-7.226.478-.035.986-.075,1.495-.109,1.244-.085,2.488-.171,3.732-.251.549-.035.725-.178.828-.72a10.994,10.994,0,0,0-.1-3.26c-.1-.94-.1-1.891-.14-2.837a1.009,1.009,0,0,1,.053-.241h8.365c-.032.674-.06,1.324-.094,1.974-.058,1.078-.123,2.156-.178,3.235-.034.666.163.848.837.813q2.6-.135,5.2-.265c.218-.011.437-.018.655-.015.722.01,1.041.3,1.065,1.029.069,2.12.124,4.24.183,6.36,0,.087-.013.174-.024.322Z" transform="translate(2471.025 -1037.944)" fill="#e41b23"/>
    <path id="Контур_93" data-name="Контур 93" d="M-1971.1,1160.764a70.813,70.813,0,0,1,10,.429,107.26,107.26,0,0,0,.015,12.783l-17.652.456c-.019-.282-.047-.511-.049-.739-.01-1.388-.021-2.776-.016-4.165,0-.7.055-.811.763-.917,1.1-.167,2.217-.281,3.33-.36s2.208-.091,3.313-.122a.461.461,0,0,0,.527-.45,15.456,15.456,0,0,0,.171-5.48C-1970.79,1161.722-1970.96,1161.262-1971.1,1160.764Z" transform="translate(2048.817 -1044.489)" fill="#e41b23"/>
    <path id="Контур_94" data-name="Контур 94" d="M-2133.234,786.943c0-.482-.005-.916,0-1.35q.036-2.527.077-5.054c.01-.534.017-.565.567-.595,1.36-.074,2.723-.137,4.084-.177.9-.026,1.8,0,2.646,0,.061,5.02.121,10.025.182,15.116h-13.933c-.026-.29-.085-.655-.088-1.021-.014-2.03-.024-4.061-.013-6.091,0-.614.035-.65.651-.674,1.747-.067,3.5-.1,5.243-.149C-2133.649,786.939-2133.482,786.943-2133.234,786.943Z" transform="translate(2197.303 -692.934)" fill="#e41b23"/>
    <path id="Контур_95" data-name="Контур 95" d="M-1775.043-317.838a65.3,65.3,0,0,0-.192-9.87c-.165-2.549-.445-5.1-.8-7.626-.263-1.879-.727-3.729-1.1-5.592-.022-.112-.043-.225-.076-.392a43.841,43.841,0,0,1,8.014.166c-.045.686-.1,1.359-.133,2.034a52.794,52.794,0,0,0,.3,7.507,83.565,83.565,0,0,1,.646,10.23,8.309,8.309,0,0,1-.707,3.293,1.156,1.156,0,0,1-1.032.756A20.089,20.089,0,0,1-1775.043-317.838Z" transform="translate(1862.784 341.698)" fill="#e41b23"/>
    <path id="Контур_96" data-name="Контур 96" d="M-2405.844-339.166a5.629,5.629,0,0,1-.611.073c-1.183-.008-2.366-.039-3.548-.033-1.35.007-2.7.045-4.049.068-1.517.026-3.034.061-4.551.076-3.369.032-6.737.046-10.106.092-.394.005-.551-.132-.564-.48-.037-.975-.1-1.95-.081-2.924.01-.7.132-1.406.193-2.11.026-.3.159-.39.464-.41,3.766-.245,7.53-.081,11.3-.014,3.495.062,6.992.026,10.488.032.167,0,.334-.015.5-.011.414.011.575.135.576.554C-2405.826-342.571-2405.84-340.89-2405.844-339.166Z" transform="translate(2464.587 344.944)" fill="#e41b23"/>
    <path id="Контур_97" data-name="Контур 97" d="M-2870.019,112.746c0,.8.062,1.559-.012,2.307-.22,2.25-.537,4.492-.733,6.744-.143,1.649-.158,3.308-.228,4.963-.006.14,0,.281,0,.376l-8.4.39a124.892,124.892,0,0,0-.226-14.647A35.876,35.876,0,0,0-2870.019,112.746Z" transform="translate(2880.096 -77.415)" fill="#e41b23"/>
    <path id="Контур_98" data-name="Контур 98" d="M-1719.495,412.416a62.379,62.379,0,0,1,11.617-.5.8.8,0,0,1,.05.158q.215,2.864.426,5.727a10.437,10.437,0,0,1-.363,3.893c-.229.738-.419.873-1.191.88q-4.8.041-9.605.081c-.234,0-.594.037-.677-.088a1.768,1.768,0,0,1-.3-.965c.028-1.04.188-2.077.19-3.116,0-1.824-.073-3.649-.117-5.473C-1719.471,412.826-1719.484,412.637-1719.495,412.416Z" transform="translate(1809.564 -353.415)" fill="#e41b23"/>
    <path id="Контур_99" data-name="Контур 99" d="M-2133.928-171.3l7.788-.231c.057,4.938.114,9.843.172,14.835l-8.065.177C-2134.034-161.454-2134.135-166.368-2133.928-171.3Z" transform="translate(2192.084 184.915)" fill="#e41b23"/>
    <path id="Контур_100" data-name="Контур 100" d="M-2550.1,809.87l-9.992.2c0-.763,0-1.465,0-2.168.007-1.967.006-3.935.03-5.9.007-.564.079-1.128.138-1.691.06-.583.168-.677.763-.659q3.645.112,7.288.236c.412.013.824,0,1.233.042a.4.4,0,0,1,.29.24,49.283,49.283,0,0,1,.305,9.548A.831.831,0,0,1-2550.1,809.87Z" transform="translate(2585.23 -711.291)" fill="#e41b23"/>
    <path id="Контур_101" data-name="Контур 101" d="M-2347.754,680.159c0-.575,0-1.1,0-1.62,0-2.147,0-4.295.019-6.442a17.263,17.263,0,0,1,.154-1.806c.052-.441.2-.571.629-.558q4.377.133,8.754.279a1.31,1.31,0,0,1,.157.03,50.458,50.458,0,0,1,.319,9.914Z" transform="translate(2389.284 -591.405)" fill="#e41b23"/>
    <path id="Контур_102" data-name="Контур 102" d="M-1896.055,885.559v-9.166c3.313-.385,6.675-.614,10.094-.727.031.556.067,1.078.088,1.6q.14,3.449.271,6.9c.033.9-.259,1.082-1.159,1.075-1.385-.01-2.773.057-4.156.15a29.5,29.5,0,0,1-4.924.2C-1895.915,885.584-1895.989,885.569-1896.055,885.559Z" transform="translate(1972.453 -781.442)" fill="#e41b23"/>
    <path id="Контур_103" data-name="Контур 103" d="M-2407.118-99.9c-.043-.717-.1-1.418-.125-2.12-.056-1.836-.108-3.673-.134-5.51a8.317,8.317,0,0,1,.144-1.531.606.606,0,0,1,.379-.4,6.518,6.518,0,0,1,1.337-.143c2.66,0,5.32.023,7.981.038.061,0,.123.014.241.029,0,.5,0,1,0,1.5q.011,3.355.024,6.709a4.15,4.15,0,0,1-.017.423.889.889,0,0,1-1,.927q-2.564.039-5.127.068c-1.105.012-2.21.017-3.316.023C-2406.845-99.887-2406.958-99.9-2407.118-99.9Z" transform="translate(2444.304 127.772)" fill="#e41b23"/>
    <path id="Контур_104" data-name="Контур 104" d="M-1803.255,656.972c0-1.609-.033-3.2.009-4.793.048-1.8.156-3.594.252-5.39.04-.754.1-.791.855-.79l6.71.011c.576,0,.708.126.689.7a84.23,84.23,0,0,1-.862,9.554.533.533,0,0,1-.574.536c-2.3.062-4.6.134-6.9.2A1.238,1.238,0,0,1-1803.255,656.972Z" transform="translate(1886.828 -569.504)" fill="#e41b23"/>
    <path id="Контур_105" data-name="Контур 105" d="M-1939.38-38.112a68.254,68.254,0,0,1-.235-7.875c3.443-.079,6.838-.539,10.275-.335a13.726,13.726,0,0,1,.631,3.992c-.007,1.152-.124,2.3-.221,3.454-.041.484-.175.59-.673.605-.989.03-1.978.037-2.968.054l-6.589.118C-1939.21-38.1-1939.26-38.1-1939.38-38.112Z" transform="translate(2012.684 69.421)" fill="#e41b23"/>
    <path id="Контур_106" data-name="Контур 106" d="M-2699.292,300.828v-7.367c.888-.169,1.815-.366,2.749-.519a32.541,32.541,0,0,1,6.424-.321c.288.01.434.088.507.382a17.021,17.021,0,0,1,.32,7.038c-.094.554-.219.666-.788.675q-3.646.058-7.292.111C-2698.011,300.836-2698.652,300.828-2699.292,300.828Z" transform="translate(2713.685 -243.376)" fill="#e41b23"/>
    <path id="Контур_107" data-name="Контур 107" d="M-2273.171,389.714c-.064-2.427-.128-4.862-.2-7.369.885-.169,1.8-.369,2.718-.516a31.969,31.969,0,0,1,6.458-.327.463.463,0,0,1,.512.422,16.925,16.925,0,0,1,.315,7c-.092.565-.2.669-.782.679q-3.529.06-7.057.111C-2271.855,389.722-2272.508,389.714-2273.171,389.714Z" transform="translate(2320.638 -325.391)" fill="#e41b23"/>
    <path id="Контур_108" data-name="Контур 108" d="M-2110.935,1079.554c-3.579.063-7.1-.134-10.657-.248a26.452,26.452,0,0,0-.352-6.614,84.572,84.572,0,0,0,11.428,0,6.826,6.826,0,0,0-.718,4.49C-2111.174,1077.945-2111.044,1078.7-2110.935,1079.554Z" transform="translate(2180.904 -963.256)" fill="#e41b23"/>
    <path id="Контур_109" data-name="Контур 109" d="M-2046.761,118.34a31.916,31.916,0,0,0,8.108-.657c.035.474.087.925.1,1.378a34.55,34.55,0,0,1-.263,6.458c-.146.905-.432,1.13-1.346,1.116q-3.2-.049-6.4-.121c-.58-.013-.563-.025-.539-.594.108-2.463.207-4.927.309-7.39C-2046.785,118.48-2046.774,118.431-2046.761,118.34Z" transform="translate(2111.843 -81.971)" fill="#e41b23"/>
    <path id="Контур_110" data-name="Контур 110" d="M-1965.991-333.161c.093-.952.2-1.869.269-2.79.112-1.434.207-2.87.3-4.306.033-.535.139-.732.606-.772a39.138,39.138,0,0,1,5.841-.361c.254.016.505.056.852.1,0,.917.058,1.819-.013,2.71-.126,1.586-.332,3.166-.5,4.749a.568.568,0,0,1-.628.578q-3.257.053-6.514.117C-1965.833-333.139-1965.883-333.15-1965.991-333.161Z" transform="translate(2036.99 341.69)" fill="#e41b23"/>
    <path id="Контур_111" data-name="Контур 111" d="M-2349.855,933.185c.062-.9.137-1.837.189-2.771q.115-2.078.2-4.157c.024-.593.2-.841.791-.946a26.876,26.876,0,0,1,5.41-.39.365.365,0,0,1,.268.22,53.727,53.727,0,0,1,.783,7.234.359.359,0,0,1-.01.081Z" transform="translate(2391.222 -826.885)" fill="#e41b23"/>
    <path id="Контур_112" data-name="Контур 112" d="M-2745.621-202.018c.285,0,.451,0,.617,0,2.08-.046,4.161-.08,6.24-.147,1.014-.033,1.276-.335,1.3-1.355q.045-2.255.087-4.51c.009-.5-.111-.665-.606-.781-.537-.126-1.074-.262-1.618-.345-1.344-.2-2.688-.439-4.042-.548a1.557,1.557,0,0,0-1.832,1.518c-.13,1.338-.109,2.692-.14,4.039C-2745.634-203.457-2745.621-202.766-2745.621-202.018Z" transform="translate(2756.442 220.151)" fill="#e41b23"/>
    <path id="Контур_113" data-name="Контур 113" d="M-1490.2-185.386a56.28,56.28,0,0,0,9.907.016v7.867a74.5,74.5,0,0,1-9.907.423Z" transform="translate(1597.93 197.703)" fill="#e41b23"/>
    <path id="Контур_114" data-name="Контур 114" d="M-2745.621-202.018c0-.748-.013-1.439,0-2.13.031-1.347.01-2.7.14-4.039a1.557,1.557,0,0,1,1.832-1.518c1.354.11,2.7.344,4.042.548.544.083,1.081.219,1.618.345.495.116.615.278.606.781q-.042,2.255-.087,4.51c-.021,1.021-.282,1.323-1.3,1.355-2.079.067-4.16.1-6.24.147C-2745.169-202.015-2745.336-202.018-2745.621-202.018Z" transform="translate(2756.442 220.151)" fill="#e41b23"/>
    <path id="Контур_115" data-name="Контур 115" d="M-2753.426,1124.937c-.216-1.779-.429-3.532-.646-5.323.9-.1,1.777-.2,2.655-.291,1.187-.128,2.375-.251,3.562-.38.746-.081.882.016.851.769-.068,1.654-.166,3.308-.25,4.962a.46.46,0,0,1-.509.494A35.263,35.263,0,0,1-2753.426,1124.937Z" transform="translate(2764.236 -1005.918)" fill="#e41b23"/>
  </g>
</svg>
