<svg xmlns="http://www.w3.org/2000/svg" width="137.444" height="151.311" viewBox="0 0 137.444 151.311">
  <path id="Контур_81" data-name="Контур 81" d="M-135.11,409.617c-3.369,1.918-6.654,3.652-9.812,5.245q-2.2,1.015-4.23,2.03-6.26,2.876-9.982,4.229a29.4,29.4,0,0,1-7.19,1.692q-3.468.339-5.16-1.184c-2.256-1.354-3.454-3.609-3.638-6.767s.564-7.134,2.214-11.928a202.86,202.86,0,0,1,8.022-19.2q-14.55-16.072-14.55-46.017,0-29.269,18.695-47.709t48.471-18.441q35.867,0,54.054,18.864T-42.229,347.7a79.594,79.594,0,0,1-4.991,24.616,60.987,60.987,0,0,1-11.758,19.456,64.459,64.459,0,0,1-17.581,13.619,68.961,68.961,0,0,1-27.929,7.445,69.455,69.455,0,0,1-28.592-4.23A16.9,16.9,0,0,1-135.11,409.617Zm-28.592,1.861c2.608-.9,5.978-2.312,10.151-4.229,1.255-.564,2.538-1.184,3.905-1.861,3.031-1.579,6.189-3.285,9.46-5.075,1.142-.578,2.143-1.071,3.045-1.523a6.758,6.758,0,0,1,1.029-.677,5.037,5.037,0,0,1,4.723-.339,54.254,54.254,0,0,0,16.5,4.23,63.828,63.828,0,0,0,17.341-.677,55.025,55.025,0,0,0,16.072-5.414,49.636,49.636,0,0,0,20.3-19.033q7.444-12.435,8.473-29.861,1.163-22.5-5.329-37.051Q-64.568,295.419-78,288.821q-13.471-6.6-34.274-6.6-25.377,0-40.928,15.311-15.586,15.311-15.565,40.181a95.287,95.287,0,0,0,1.339,16.918,48.352,48.352,0,0,0,4.483,13.535,38.46,38.46,0,0,0,8.036,10.659,4.843,4.843,0,0,1,1.015,6.091q-7.106,15.4-9.475,23.685c-.338,1.114-.62,2.143-.846,3.045A1.3,1.3,0,0,1-163.7,411.478Zm15.734-69.365a3.914,3.914,0,0,1,1.184-2.876,3.818,3.818,0,0,1,2.792-1.185,3.849,3.849,0,0,1,2.806,1.185A3.969,3.969,0,0,1-140,342.113q0,12.689,7.359,20.218,7.338,7.528,20.373,7.529,13.7,0,22.67-7.952a25.393,25.393,0,0,0,8.981-19.794,3.861,3.861,0,0,1,1.184-2.876,3.765,3.765,0,0,1,2.777-1.185,3.872,3.872,0,0,1,2.805,1.185,3.969,3.969,0,0,1,1.184,2.876,33.03,33.03,0,0,1-11.265,25.462q-11.251,10.257-28.338,10.236-16.39,0-26.054-9.9Q-147.968,358.016-147.968,342.113Zm28.521-20.556A6.4,6.4,0,0,1-124.1,323.5a6.357,6.357,0,0,1-4.666-1.946,6.348,6.348,0,0,1-1.946-4.653,6.371,6.371,0,0,1,1.946-4.652,6.413,6.413,0,0,1,4.666-1.946,6.452,6.452,0,0,1,4.653,1.946,6.413,6.413,0,0,1,1.931,4.652A6.39,6.39,0,0,1-119.447,321.557ZM-95,323.5a6.558,6.558,0,0,1-4.836-1.946,6.335,6.335,0,0,1-1.932-4.653,6.18,6.18,0,0,1,.917-3.214,7.421,7.421,0,0,1,2.453-2.453,6.415,6.415,0,0,1,3.4-.93,6.452,6.452,0,0,1,4.652,1.946,6.413,6.413,0,0,1,1.932,4.652,6.36,6.36,0,0,1-.931,3.384,6.65,6.65,0,0,1-2.439,2.369A6.6,6.6,0,0,1-95,323.5Z" transform="translate(179.436 -271.564)" fill="#e41b23"/>
</svg>
