<svg id="Сгруппировать_35" data-name="Сгруппировать 35" xmlns="http://www.w3.org/2000/svg" xmlns:xlink="http://www.w3.org/1999/xlink" width="46.462" height="47.193" viewBox="0 0 46.462 47.193">
  <defs>
    <clipPath id="clip-path">
      <rect id="Прямоугольник_15" data-name="Прямоугольник 15" width="46.462" height="47.193" fill="none"/>
    </clipPath>
  </defs>
  <g id="Сгруппировать_34" data-name="Сгруппировать 34" clip-path="url(#clip-path)">
    <path id="Контур_119" data-name="Контур 119" d="M40.253,6.138C36.138,2.065,30.411,0,23.231,0A23.788,23.788,0,0,0,11.257,3.044,21.736,21.736,0,0,0,2.95,11.416,23.938,23.938,0,0,0,0,23.231C0,30.21,1.93,35.988,5.737,40.4c3.881,4.5,9.125,6.788,15.585,6.788,7.345,0,13.427-2.214,18.078-6.58,4.686-4.4,7.063-10.247,7.063-17.382,0-7.261-2.089-13.012-6.209-17.093M41.031,31.4a1.97,1.97,0,0,0-.629-.111h-.011c-.114,0-2.08.014-6.139.182a41.677,41.677,0,0,0,1.035-5.21c2.752-.041,5.284-.091,7.034-.149A19.98,19.98,0,0,1,41.031,31.4M5.338,31.8A23.77,23.77,0,0,1,4.16,26.37l6.571.005a34.945,34.945,0,0,0,1.1,5.541c-3.525-.057-6.084-.136-6.144-.138a1.937,1.937,0,0,0-.347.023M5.319,15.735a1.97,1.97,0,0,0,.195.03c.234.013,2.459.133,5.606.256a29.03,29.03,0,0,0-.643,6.37l-6.469-.005a20.457,20.457,0,0,1,1.312-6.652M42.44,22.12c-1.583.055-4.05.106-6.834.148a25.882,25.882,0,0,0-.691-6.317c3.5-.152,5.6-.234,6.5-.267A24.341,24.341,0,0,1,42.44,22.12m-10.829.2c-2.205.025-4.437.044-6.458.055,0-1.832,0-3.942-.005-6.077,1.549-.012,3.03-.045,4.367-.106l1.3-.059a21.7,21.7,0,0,1,.792,6.187M25.149,12.314c0-2.1,0-4.06,0-5.611a21.941,21.941,0,0,1,4.109,5.514c-1.254.056-2.648.086-4.113.1M21.17,5.807c0,1.653,0,3.97,0,6.5-1.539-.018-3.087-.05-4.58-.09A21.165,21.165,0,0,1,21.17,5.807m-.005,10.482c0,2.142,0,4.261.005,6.1-2.03,0-4.369,0-6.694,0a24.945,24.945,0,0,1,.7-6.231c1.91.057,3.954.1,5.986.127m-6.41,10.088c2.237,0,4.476,0,6.429,0,.01,1.706.026,3.632.047,5.593-1.736.016-3.511.014-5.214,0a30.445,30.445,0,0,1-1.262-5.59m3.768,9.585c.919,0,1.843,0,2.758-.013.028,1.942.061,3.784.1,5.328a24.448,24.448,0,0,1-3.688-5.317h.831m6.741-.089c.973-.029,1.908-.066,2.771-.114l.4-.022a20.959,20.959,0,0,1-3.092,4.674c-.029-1.346-.056-2.895-.08-4.538m2.551-4.091c-.808.045-1.684.08-2.6.108-.02-1.89-.036-3.782-.046-5.531,1.83-.01,3.938-.028,6.082-.051a36.073,36.073,0,0,1-1.2,5.355c-.709.036-1.444.075-2.231.119M39.665,11.765c-1.337.053-3.324.135-6.039.255a25.188,25.188,0,0,0-5-7.51A17.029,17.029,0,0,1,37.45,8.969a15.019,15.019,0,0,1,2.215,2.8M13.235,6.5a18.337,18.337,0,0,1,3.186-1.429,25.287,25.287,0,0,0-4.121,7c-2.032-.075-3.76-.152-4.934-.207A17.823,17.823,0,0,1,13.235,6.5M8.754,37.8a17.789,17.789,0,0,1-1.464-2c1.4.036,3.52.083,5.974.116a29.411,29.411,0,0,0,4.227,6.937A14.869,14.869,0,0,1,8.754,37.8m27.919-.1a19.3,19.3,0,0,1-7.565,4.384A26.762,26.762,0,0,0,32.9,35.514c2.733-.123,4.7-.186,5.935-.216a18.5,18.5,0,0,1-2.157,2.41" fill="#e41b23"/>
  </g>
</svg>
