<svg xmlns="http://www.w3.org/2000/svg" width="137.681" height="151.311" viewBox="0 0 137.681 151.311">
  <path id="Контур_76" data-name="Контур 76" d="M-137.095,381.385c-4.013,1.777-7.777,3.444-11.346,5a3.751,3.751,0,0,0-1,.5q-16.664,7-19.33,7a5.191,5.191,0,0,1-3.9-1.43,6.06,6.06,0,0,1-1.75-3.569,11.4,11.4,0,0,1,.153-3.346,50.363,50.363,0,0,1,2.18-7.319q2.645-8.186,9-23.663-16.352-17.331-16.345-44.16a72.015,72.015,0,0,1,8.332-34.662,61.121,61.121,0,0,1,23.5-24.33q15.164-8.832,34.328-8.832,35.328,0,54.339,19.747t17,57.575a78.9,78.9,0,0,1-5.263,24.246A62.144,62.144,0,0,1-59.12,363.388a63.586,63.586,0,0,1-17.817,13.484,69.9,69.9,0,0,1-28.426,7.43,70.555,70.555,0,0,1-28.565-4.249Q-135.449,380.7-137.095,381.385Zm-16.5-4.166c.333-.111.708-.292,1.167-.5,3.43-1.458,7.152-3.055,11.151-4.833q2-.833,3.666-1.666c.555-.237,1-.389,1.347-.5a4.954,4.954,0,0,1,4.152-.167,54.043,54.043,0,0,0,16.428,4.166,64.308,64.308,0,0,0,17.483-.75,60.2,60.2,0,0,0,16.414-5.43,51.21,51.21,0,0,0,20.83-18.983q7.666-12.331,8.5-29.329,1.833-33.162-14.067-49.743Q-82.457,252.9-113.279,252.9q-24.475,0-40.077,16.247Q-168.937,285.4-168.923,310.4q0,24.163,15.664,39.328a4.8,4.8,0,0,1,1.167,5.666q-7,16.643-10.013,25.33Q-158.439,379.364-153.593,377.219Zm6.485-73.823a16.648,16.648,0,0,1-.333-10.415,35.76,35.76,0,0,1,4.333-9.832,31.736,31.736,0,0,1,6.082-7.166q3.25-2.75,5.083-2.416,3.52.833,8,8.082c3.013,4.833,4.444,8.471,4.333,10.915-.1,1.889-1.083,4.138-2.916,6.749a18.215,18.215,0,0,1-6.082,5.749c1.777,4.444,5.4,9.165,10.832,14.164a156.288,156.288,0,0,0,15.5,12.665,30.522,30.522,0,0,1,5.749-7.249c2.513-2.388,4.749-3.527,6.749-3.416q4.332.167,10.665,7,6.353,6.832,6.166,10.5-.167,3-4.5,6.416t-12.235,4.666q-7.936,1.25-19.08-4.582-9.853-5.166-22.177-18.081T-147.107,303.4Z" transform="translate(179.436 -242.572)" fill="#e41b23"/>
</svg>
